HIERARCHY
ROOT Hips
{
	OFFSET 0.000000 88.474243 0.000000
	CHANNELS 6 Xposition Yposition Zposition Zrotation Yrotation Xrotation 
	JOINT Hips_Spine
	{
		OFFSET 0.000000 0.000000 0.000000
		CHANNELS 3 Zrotation Yrotation Xrotation
		JOINT Spine
		{
			OFFSET 0.005100 8.711998 -0.691000
			CHANNELS 3 Zrotation Yrotation Xrotation
			JOINT Spine1
			{
				OFFSET -0.009200 8.660301 -1.275000
				CHANNELS 3 Zrotation Yrotation Xrotation
				JOINT Spine2
				{
					OFFSET 0.006300 9.852501 -1.857000
					CHANNELS 3 Zrotation Yrotation Xrotation
					JOINT Spine2_Neck
					{
						OFFSET 0.000000 0.000000 0.000000
						CHANNELS 3 Zrotation Yrotation Xrotation
						JOINT Neck
						{
							OFFSET 0.016300 11.420799 -0.263300
							CHANNELS 3 Zrotation Yrotation Xrotation
							End Site #name: Head
							{
								OFFSET -0.019200 9.262405 2.362500
							}
						}
					}
					JOINT Spine2_LeftShoulder
					{
						OFFSET 0.000000 0.000000 0.000000
						CHANNELS 3 Zrotation Yrotation Xrotation
						JOINT LeftShoulder
						{
							OFFSET 5.616900 6.732201 -0.345700
							CHANNELS 3 Zrotation Yrotation Xrotation
							JOINT LeftArm
							{
								OFFSET 10.664888 -0.183372 -2.440700
								CHANNELS 3 Zrotation Yrotation Xrotation
								JOINT LeftForeArm
								{
									OFFSET 27.459126 0.000000 0.000000
									CHANNELS 3 Zrotation Yrotation Xrotation
									End Site #name: LeftHand
									{
										OFFSET 21.306858 0.000000 0.000000
									}
								}
							}
						}
					}
					JOINT Spine2_RightShoulder
					{
						OFFSET 0.000000 0.000000 0.000000
						CHANNELS 3 Zrotation Yrotation Xrotation
						JOINT RightShoulder
						{
							OFFSET -5.580300 6.737503 -0.344400
							CHANNELS 3 Zrotation Yrotation Xrotation
							JOINT RightArm
							{
								OFFSET -10.679335 -0.188484 -2.383900
								CHANNELS 3 Zrotation Yrotation Xrotation
								JOINT RightForeArm
								{
									OFFSET -27.503529 0.000000 0.000000
									CHANNELS 3 Zrotation Yrotation Xrotation
									End Site #name: RightHand
									{
										OFFSET -21.306808 0.000000 0.000000
									}
								}
							}
						}
					}
				}
			}
		}
	}
	JOINT Hips_LeftUpLeg
	{
		OFFSET 0.000000 0.000000 0.000000
		CHANNELS 3 Zrotation Yrotation Xrotation
		JOINT LeftUpLeg
		{
			OFFSET 6.857700 -6.739601 0.312100
			CHANNELS 3 Zrotation Yrotation Xrotation
			JOINT LeftLeg
			{
				OFFSET -0.367590 -34.731552 -4.572400
				CHANNELS 3 Zrotation Yrotation Xrotation
				End Site #name: LeftFoot
				{
					OFFSET 0.367590 -34.656704 -6.067400
				}
			}
		}
	}
	JOINT Hips_RightUpLeg
	{
		OFFSET 0.000000 0.000000 0.000000
		CHANNELS 3 Zrotation Yrotation Xrotation
		JOINT RightUpLeg
		{
			OFFSET -6.876100 -6.733299 0.301000
			CHANNELS 3 Zrotation Yrotation Xrotation
			JOINT RightLeg
			{
				OFFSET 0.347353 -34.795158 -4.515900
				CHANNELS 3 Zrotation Yrotation Xrotation
				End Site #name: RightFoot
				{
					OFFSET -0.347353 -34.589367 -6.070300
				}
			}
		}
	}
}
MOTION
Frames: 12
Frame Time: 0.041667
0.000000 -0.000000 0.000000 1.319916 36.330281 -8.044089 0.000000 0.000000 0.000000 3.864877 -3.507361 4.103538 0.994067 -1.841066 1.407166 0.000000 0.000000 0.000000 1.011944 -1.854114 1.380287 -5.372149 -1.777417 6.994673 1.011944 -1.854114 1.380287 2.442539 1.018805 0.156776 24.079344 -56.407238 -35.784169 0.000008 -55.429656 -0.000015 1.011944 -1.854114 1.380287 36.812805 5.676313 3.936165 21.457157 8.657819 -8.608338 179.999888 75.859287 179.999951 0.000000 0.000000 0.000000 22.149928 7.130161 -5.267672 -3.661746 -11.967956 74.834936 0.000000 0.000000 0.000000 -19.487575 -22.064558 -39.787244 -4.498955 0.514175 15.277754 
-0.805699 -1.846466 6.919113 1.958060 45.723688 -9.528508 0.000000 0.000000 0.000000 1.395714 -2.858181 4.561643 -0.038762 -1.262835 1.668281 0.000000 0.000000 0.000000 -0.028314 -1.277193 1.658719 -3.424193 -2.891864 8.017256 -0.028314 -1.277193 1.658719 -3.706163 -1.844643 0.626410 7.805721 -63.677448 -15.708456 0.000037 -74.566855 -0.000037 -0.028314 -1.277193 1.658719 31.672645 5.954998 3.563175 6.838979 32.863789 -26.958600 179.999997 79.571610 179.999960 0.000000 0.000000 0.000000 26.053269 8.204584 -18.929799 -4.086164 -11.037833 87.460181 0.000000 0.000000 0.000000 -27.654829 -24.768989 -33.146845 -6.223278 2.341234 14.328639 
-1.974005 -5.513046 13.651291 2.279587 58.862475 -10.324955 0.000000 0.000000 0.000000 0.081109 -0.778976 6.746160 -0.010345 -0.152671 2.720475 0.000000 0.000000 0.000000 -0.008966 -0.139973 2.720262 -1.756053 -4.805875 6.563605 -0.008966 -0.139973 2.720262 -16.473678 -7.836324 2.628884 -3.380765 -63.953613 8.917675 179.999753 -86.874980 -179.999732 -0.008966 -0.139973 2.720262 16.477519 1.731992 1.668262 -12.436345 38.148581 -57.978542 -179.999984 77.944305 -179.999940 0.000000 0.000000 0.000000 25.750392 10.862142 -37.545536 -5.716244 -10.224635 100.236920 0.000000 0.000000 0.000000 -35.373896 -24.030124 -31.869235 -4.004921 10.248233 26.585677 
-2.853662 -8.425445 20.168823 -0.911302 70.837695 -13.274140 0.000000 0.000000 0.000000 0.920344 2.918264 8.816995 1.011404 1.387810 3.702047 0.000000 0.000000 0.000000 1.002463 1.475405 3.675159 0.197990 -7.155351 5.049989 1.002463 1.475405 3.675159 -25.897077 -11.328098 4.750608 -14.598263 -57.370868 31.373149 -179.999963 -75.241023 179.999952 1.002463 1.475405 3.675159 0.031860 -10.893466 0.027627 -25.394113 29.060928 -83.209068 179.999992 71.597520 179.999897 0.000000 0.000000 0.000000 20.155084 13.838049 -54.215346 -6.014581 -8.069104 108.846252 0.000000 0.000000 0.000000 -39.774131 -21.905879 -33.477510 -2.571245 10.428018 52.266712 
-3.590675 -9.798668 26.282181 -7.415835 79.094419 -18.553209 0.000000 0.000000 0.000000 1.377856 5.924383 9.093032 1.816765 2.628838 3.837150 0.000000 0.000000 0.000000 1.796861 2.770900 3.760829 2.363798 -9.224739 6.375808 1.796861 2.770900 3.760829 -25.321502 -11.347179 4.674786 -22.715892 -50.949214 42.905956 179.999877 -77.429179 -179.999905 1.796861 2.770900 3.760829 -11.014260 -25.415082 0.059262 -31.258199 20.838592 -93.907883 -179.999988 63.884118 179.999979 0.000000 0.000000 0.000000 11.418280 17.456006 -64.840353 -6.874332 -3.737511 110.998718 0.000000 0.000000 0.000000 -39.304874 -22.032280 -34.664327 -5.097763 9.190426 67.473231 
-4.201185 -9.939804 31.975784 -18.087310 83.236506 -28.521884 0.000000 0.000000 0.000000 0.748512 6.584598 8.673067 1.782883 2.883575 3.724073 0.000000 0.000000 0.000000 1.764454 3.016012 3.642623 4.114196 -10.617786 9.630570 1.764454 3.016012 3.642623 -20.399276 -10.135117 3.658034 -26.242018 -49.778985 44.834126 179.999017 -84.828635 -179.998879 1.764454 3.016012 3.642623 -15.541324 -33.961979 0.646454 -31.618552 14.690833 -97.068921 -179.999963 52.624198 179.999998 0.000000 0.000000 0.000000 3.305932 21.014973 -67.922357 -7.635873 -1.160502 107.742381 0.000000 0.000000 0.000000 -37.585308 -21.621993 -34.942630 -3.186753 9.813650 75.605025 
-4.507095 -9.860832 37.032745 -34.821832 83.780089 -45.856169 0.000000 0.000000 0.000000 0.238940 4.479298 9.526365 1.523023 1.891974 4.169485 0.000000 0.000000 0.000000 1.515405 2.002232 4.128503 5.464160 -11.335787 11.365942 1.515405 2.002232 4.128503 -17.301688 -9.383343 3.085902 -22.581662 -48.545227 38.623205 -179.999172 -83.023587 179.999105 1.515405 2.002232 4.128503 -13.100411 -33.131958 0.348327 -30.413014 11.622362 -98.699731 -179.999986 43.115809 180.000000 0.000000 0.000000 0.000000 0.754017 22.381097 -65.930020 -1.276951 -2.494269 104.593806 0.000000 0.000000 0.000000 -34.211071 -18.871605 -34.803777 0.994226 10.726568 80.844160 
-4.369707 -9.858940 41.063598 -46.625880 82.458213 -58.163112 0.000000 0.000000 0.000000 0.441306 1.833680 10.903712 1.495720 0.656134 4.760347 0.000000 0.000000 0.000000 1.494920 0.751841 4.749589 6.417013 -11.758751 10.482024 1.494920 0.751841 4.749589 -16.998924 -9.269301 3.022952 -18.843401 -45.888752 32.748483 180.000000 -75.784829 -179.999992 1.494920 0.751841 4.749589 -9.286224 -30.024079 -0.028054 -30.142088 11.126865 -100.660295 179.999996 39.707981 -179.999992 0.000000 0.000000 0.000000 4.980025 20.520610 -63.708443 5.208680 -4.922070 102.612129 0.000000 0.000000 0.000000 -30.929700 -16.583171 -34.932572 3.891148 10.767713 83.774464 
-4.027333 -9.640213 44.111786 -46.329735 81.543654 -57.369322 0.000000 0.000000 0.000000 0.609290 0.803465 11.191793 1.515741 0.181356 4.918200 0.000000 0.000000 0.000000 1.517540 0.266545 4.915581 6.480114 -12.092412 8.995596 1.517540 0.266545 4.915581 -17.074888 -9.103730 2.992543 -20.679220 -45.010883 32.916160 -179.999947 -73.012620 179.999939 1.517540 0.266545 4.915581 -7.711833 -26.771104 -0.107322 -30.315333 12.092667 -102.904662 -179.999963 40.490272 -179.999996 0.000000 0.000000 0.000000 9.932243 18.378735 -63.100683 5.422268 -5.887414 102.021405 0.000000 0.000000 0.000000 -29.222532 -16.407138 -36.477596 4.941835 10.081859 86.978971 
-3.679012 -9.184349 46.558624 -35.934081 81.228750 -46.097539 0.000000 0.000000 0.000000 0.060094 1.305081 10.614450 1.227181 0.411147 4.758682 0.000000 0.000000 0.000000 1.228424 0.488353 4.753026 6.021005 -12.474061 8.413749 1.228424 0.488353 4.753026 -16.716443 -8.860644 2.894033 -23.675116 -45.587299 35.335581 179.999925 -74.823113 -179.999955 1.228424 0.488353 4.753026 -7.032938 -24.161857 -0.113350 -30.361174 13.979142 -105.128047 179.999999 40.255220 -179.999999 0.000000 0.000000 0.000000 12.160545 18.229907 -63.177999 3.821420 -5.974450 101.132199 0.000000 0.000000 0.000000 -28.574589 -17.297135 -38.629471 5.141812 9.373078 89.298014 
-3.291735 -8.571617 48.534652 -23.037862 80.632760 -32.609791 0.000000 0.000000 0.000000 -0.859444 2.210486 10.160937 0.753292 0.821533 4.614121 0.000000 0.000000 0.000000 0.753878 0.897562 4.602384 5.927999 -12.946660 8.406250 0.753878 0.897562 4.602384 -16.237001 -8.674522 2.796817 -23.930183 -46.595245 35.669152 -179.999940 -77.299553 179.999889 0.753878 0.897562 4.602384 -6.274231 -21.651889 -0.108159 -30.146341 16.533697 -106.910287 -179.999966 38.373326 -179.999995 0.000000 0.000000 0.000000 13.210250 18.481842 -62.513606 2.966209 -6.000646 99.833798 0.000000 0.000000 0.000000 -28.141783 -18.025289 -39.668438 5.112276 9.049836 90.339117 
-2.763037 -7.864173 50.058029 -14.050122 79.629710 -23.454131 0.000000 0.000000 0.000000 -1.323532 2.863166 10.165139 0.473949 1.121901 4.592267 0.000000 0.000000 0.000000 0.473121 1.199468 4.575823 6.003456 -13.410527 8.543486 0.473121 1.199468 4.575823 -16.045973 -8.590322 2.756282 -22.341001 -47.326541 33.728675 179.999950 -78.498669 -179.999990 0.473121 1.199468 4.575823 -5.984320 -20.176871 -0.093507 -29.475944 19.490855 -107.669186 -179.999953 37.828012 -179.999988 0.000000 0.000000 0.000000 14.468831 17.537580 -59.914031 2.266774 -6.411108 97.901860 0.000000 0.000000 0.000000 -27.585899 -17.991487 -38.908154 5.002772 9.022036 89.934135 
